<?xml version="1.0" encoding="utf-8"?>
<!-- Generator: Adobe Illustrator 26.1.0, SVG Export Plug-In . SVG Version: 6.00 Build 0)  -->
<svg version="1.1" id="Layer_1" xmlns="http://www.w3.org/2000/svg" xmlns:xlink="http://www.w3.org/1999/xlink" x="0px" y="0px"
	 viewBox="0 0 957.6 359.24" style="enable-background:new 0 0 957.6 359.24;" xml:space="preserve">
<style type="text/css">
	.st0{opacity:0.5;fill:#69A3D8;}
	.st1{opacity:0.5;fill:url(#SVGID_1_);}
	.st2{fill:#93278F;}
	.st3{opacity:0.5;fill:#53C1B8;}
	.st4{opacity:0.5;fill:#B670AD;}
	.st5{fill:#FF00FF;}
	.st6{fill:#B670AD;stroke:#231F20;stroke-width:3;stroke-miterlimit:10;}
	.st7{fill:#69A3D8;stroke:#231F20;stroke-width:3;stroke-miterlimit:10;}
	.st8{fill:#53C1B8;stroke:#231F20;stroke-width:3;stroke-miterlimit:10;}
	.st9{fill:#231F20;}
	.st10{font-family:'MyriadPro-Regular';}
	.st11{font-size:24px;}
	.st12{fill:none;}
	.st13{font-size:21px;}
	.st14{fill:#F15A24;}
	.st15{fill:#22B573;}
	.st16{fill:none;stroke:#231F20;stroke-width:2;stroke-miterlimit:10;stroke-dasharray:8;}
	.st17{fill:none;stroke:#000000;stroke-linejoin:round;stroke-miterlimit:10;}
	.st18{fill:#29ABE2;}
	.st19{fill:#39B54A;}
	.st20{fill:#FCEE21;}
	.st21{fill:none;stroke:#000000;stroke-width:2;stroke-miterlimit:10;}
	.st22{font-size:18px;}
	.st23{font-size:14px;}
	.st24{fill:none;stroke:#231F20;stroke-width:2;stroke-linejoin:round;stroke-miterlimit:10;stroke-dasharray:8;}
	.st25{font-family:'ArialMT';}
	.st26{opacity:0.5;fill:url(#SVGID_00000087407500817496668890000009418363246588986243_);}
	.st27{opacity:0.5;fill:url(#SVGID_00000181795843833893377320000001457438079792407727_);}
	.st28{fill:none;stroke:#000000;stroke-width:3;stroke-miterlimit:10;}
</style>
<path class="st0" d="M480.69,259.11c27.29,3.29,70.25,5.06,120.48-7.46c42.61-10.62,75.27-27.75,96.82-41.32
	c0,41.3,0,82.61,0,123.91c-23.18-11.64-57.84-25.79-101.9-32.68c-48.32-7.56-88.89-3.42-115.59,1.44"/>
<linearGradient id="SVGID_1_" gradientUnits="userSpaceOnUse" x1="309.7567" y1="116.2228" x2="359.8473" y2="116.2228">
	<stop  offset="0" style="stop-color:#2483C5"/>
	<stop  offset="1" style="stop-color:#2483C5;stop-opacity:0"/>
</linearGradient>
<path class="st1" d="M309.94,118.43c6.91-3.8,15.48-9.5,23.92-17.93c15.44-15.41,22.63-32.15,25.99-42.14c0,38.57,0,77.14,0,115.71
	c-4.77-3.51-13.77-9.16-26.43-11.6c-9.92-1.91-18.3-1.11-23.66-0.16"/>
<rect x="687.63" y="123.38" class="st2" width="7.69" height="16.05"/>
<path class="st3" d="M146.55,212.15c10.6-15.25,21.51-32.48,32.13-51.74c8.49-15.39,15.76-30.21,22.01-44.19
	c0,15.45,0,30.91,0,46.36c-6.78,11.12-13.55,22.35-20.32,33.69c-11.65,19.52-23,38.9-34.07,58.14"/>
<path class="st3" d="M146.55,212.15c17.86,8.02,37.6,15.72,59.18,22.49c62.95,19.75,120.26,24.93,165.43,24.78
	c0.2,14.08,0.4,28.15,0.59,42.23c-47.75-13.42-100.13-25.48-156.8-34.74c-23.44-3.83-46.26-6.96-68.4-9.49"/>
<path class="st0" d="M146.8,154.94c15.28,19,40.96,45.96,79.61,67.94c59.92,34.09,117.25,36.99,144.76,36.53
	c0.2,14.08,0.4,28.15,0.59,42.23c-49.96-14.34-106.65-35.44-166.02-67.01c-21.09-11.21-40.73-22.79-58.93-34.43"/>
<path class="st0" d="M146.8,154.94c6.59-1.37,15.87-4.12,25.68-10.06c15.55-9.41,24.17-21.81,28.23-28.67c0,15.45,0,30.91,0,46.36
	c-6.81,2.91-14.38,6.7-22.3,11.67c-13.65,8.57-24.04,17.95-31.61,25.95"/>
<path class="st4" d="M146.31,97.73c5.75,13.12,12.91,26.45,21.82,39.61c59.36,87.66,159.75,113.74,203.03,122.07
	c0.2,14.08,0.4,28.15,0.59,42.23c-41.24-11.33-107.93-36.15-169.37-93.41c-23.85-22.23-42.14-44.9-56.07-65.24"/>
<path class="st4" d="M146.31,97.73c0,0,6.63,6.93,21.82,12.32c9.11,3.23,20.25,5.9,32.57,6.17v46.36c0,0-25.29-19.59-54.39-19.59"/>
<path class="st5" d="M614.33,53.37H364.85c-2.76,0-5,2.24-5,5v26c0,2.76,2.24,5,5,5h249.48c2.76,0,5-2.24,5-5v-26
	C619.33,55.61,617.09,53.37,614.33,53.37z"/>
<path class="st6" d="M143.31,143H16.67c-1.66,0-3-1.34-3-3v-39.26c0-1.66,1.34-3,3-3h126.63c1.66,0,3,1.34,3,3V140
	C146.31,141.65,144.96,143,143.31,143z"/>
<path class="st7" d="M143.31,200.21H16.67c-1.66,0-3-1.34-3-3v-39.26c0-1.66,1.34-3,3-3h126.63c1.66,0,3,1.34,3,3v39.26
	C146.31,198.86,144.96,200.21,143.31,200.21z"/>
<path class="st8" d="M143.31,257.42H16.67c-1.66,0-3-1.34-3-3v-39.26c0-1.66,1.34-3,3-3h126.63c1.66,0,3,1.34,3,3v39.26
	C146.31,256.07,144.96,257.42,143.31,257.42z"/>
<text transform="matrix(1 0 0 1 27.9904 127.3651)" class="st9 st10 st11">scRNA-Seq</text>
<text transform="matrix(1 0 0 1 27.9904 184.6199)" class="st9 st10 st11">snRNA-Seq</text>
<text transform="matrix(1 0 0 1 50.9904 241.7779)" class="st9 st10 st11">CyTOF</text>
<rect x="397.7" y="53.6" class="st12" width="192.74" height="35.53"/>
<text transform="matrix(1 0 0 1 428.2522 78.8241)" class="st10 st13">Active learning</text>
<path class="st14" d="M614.33,98.34H364.85c-2.76,0-5,2.24-5,5v27c0,2.21,1.79,4,4,4h250.48c2.76,0,5-2.24,5-5v-26
	C619.33,100.58,617.09,98.34,614.33,98.34z"/>
<rect x="359.85" y="98.57" class="st12" width="259.48" height="35.53"/>
<text transform="matrix(1 0 0 1 393.8497 123.7946)" class="st10 st13">Random cell selection</text>
<path class="st15" d="M614.33,143.08H364.85c-2.76,0-5,2.24-5,5v26c0,2.76,2.24,5,5,5h249.48c2.76,0,5-2.24,5-5v-26
	C619.33,145.32,617.09,143.08,614.33,143.08z"/>
<rect x="359.85" y="143.31" class="st12" width="259.48" height="35.53"/>
<text transform="matrix(1 0 0 1 394.2703 168.5319)" class="st10 st13">Adaptive reweighting</text>
<path class="st16" d="M305.05,164.34H205.7c-2.76,0-5-2.24-5-5v-39.87c0-2.76,2.24-5,5-5h99.35c2.76,0,5,2.24,5,5v39.87
	C310.05,162.1,307.81,164.34,305.05,164.34z"/>
<text transform="matrix(1 0 0 1 210.6012 146.766)" class="st10 st11">train sets</text>
<text transform="matrix(1 0 0 1 388.1044 285.9301)" class="st10 st11">test sets</text>
<path class="st16" d="M475.51,304.28h-99.35c-2.76,0-5-2.24-5-5v-39.87c0-2.76,2.24-5,5-5h99.35c2.76,0,5,2.24,5,5v39.87
	C480.51,302.05,478.27,304.28,475.51,304.28z"/>
<path class="st6" d="M185.74,175.1"/>
<line class="st17" x1="357.68" y1="43.53" x2="619.67" y2="43.66"/>
<line class="st17" x1="357.68" y1="43.53" x2="357.57" y2="50.65"/>
<line class="st17" x1="619.67" y1="43.66" x2="619.57" y2="50.65"/>
<text transform="matrix(1 0 0 1 378.1509 31.2897)" class="st10 st11">Cell selection methods</text>
<line class="st17" x1="197.17" y1="85.16" x2="314.74" y2="85.21"/>
<line class="st17" x1="196.96" y1="85.15" x2="196.86" y2="92.28"/>
<line class="st17" x1="314.95" y1="85.28" x2="314.86" y2="92.28"/>
<text transform="matrix(1 0 0 1 195.3861 47.1578)"><tspan x="0" y="0" class="st10 st11">10 train-test</tspan><tspan x="34.45" y="28.8" class="st10 st11">splits</tspan></text>
<rect x="660.62" y="79.38" class="st18" width="7.69" height="19.89"/>
<rect x="660.62" y="99.02" class="st2" width="7.69" height="14.82"/>
<rect x="660.62" y="113.67" class="st19" width="7.69" height="9.83"/>
<rect x="660.62" y="131.88" class="st20" width="7.69" height="6.25"/>
<rect x="660.62" y="123.42" class="st5" width="7.69" height="8.93"/>
<rect x="660.62" y="137.56" class="st14" width="7.69" height="6.46"/>
<rect x="660.62" y="80.09" class="st21" width="7.69" height="64"/>
<rect x="687.63" y="91.02" class="st18" width="7.69" height="32.7"/>
<rect x="687.63" y="139.43" class="st5" width="7.69" height="15.24"/>
<rect x="687.63" y="91.73" class="st21" width="7.69" height="64"/>
<rect x="673.66" y="120.07" class="st18" width="7.69" height="6.64"/>
<rect x="674.6" y="125.61" class="st2" width="7.69" height="10.37"/>
<rect x="673.66" y="135.62" class="st19" width="7.69" height="18.13"/>
<rect x="673.66" y="166.73" class="st20" width="7.69" height="8.89"/>
<rect x="674.6" y="153.75" class="st5" width="7.69" height="14.91"/>
<rect x="673.66" y="175.62" class="st14" width="7.69" height="9.09"/>
<rect x="673.66" y="120.77" class="st21" width="7.69" height="64"/>
<text transform="matrix(1 0 0 1 656.847 29.9742)"><tspan x="0" y="0" class="st10 st22">Select </tspan><tspan x="-4.99" y="21.6" class="st10 st22">training</tspan><tspan x="7.77" y="43.2" class="st10 st22">data</tspan></text>
<text transform="matrix(1 0 0 1 709.7871 112.0886)"><tspan x="0" y="0" class="st10 st23">100 cells</tspan><tspan x="0" y="16.8" class="st10 st23">250 cells</tspan><tspan x="0" y="33.6" class="st10 st23">500 cells</tspan></text>
<path class="st24" d="M940.78,140.18H822.73c-2.69,0-4.87-2.24-4.87-5v-86.9c0-2.76,2.18-5,4.87-5h118.05c2.69,0,4.87,2.24,4.87,3
	v86.9C945.65,137.94,943.47,140.18,940.78,140.18z"/>
<text transform="matrix(1 0 0 1 827.4525 62.3051)"><tspan x="0" y="0" class="st25 st22">Train models:</tspan><tspan x="0" y="16.8" class="st25 st23">scmap</tspan><tspan x="0" y="33.6" class="st25 st23">SingleR</tspan><tspan x="0" y="50.4" class="st25 st23">Random forest</tspan><tspan x="0" y="67.2" class="st25 st23">CyTOF-LDA</tspan></text>
<text transform="matrix(1 0 0 1 705.573 225.0887)"><tspan x="0" y="0" class="st25 st22">Evaluate cell </tspan><tspan x="0.36" y="21.6" class="st25 st22">selection methods:</tspan><tspan x="0" y="38.4" class="st25 st23">Balanced accuracy</tspan><tspan x="0" y="55.2" class="st25 st23">MCC</tspan><tspan x="0" y="72" class="st25 st23">KAP</tspan><tspan x="0" y="88.8" class="st25 st23">F1-score</tspan><tspan x="0" y="105.6" class="st25 st23">Sensitivity</tspan></text>
<path class="st24" d="M858.2,341.38H704.34c-3.5,0-6.34-3.19-6.34-7.13V210.33c0-3.94,2.84-7.13,6.34-7.13H858.2
	c3.5,0,6.34,3.19,6.34,4.28V331.4C864.54,338.19,861.7,341.38,858.2,341.38z"/>
<linearGradient id="SVGID_00000087402889557516894530000003966062215573798822_" gradientUnits="userSpaceOnUse" x1="634.4114" y1="101.6119" x2="655.7816" y2="101.6119">
	<stop  offset="0" style="stop-color:#2483C5"/>
	<stop  offset="1" style="stop-color:#2483C5;stop-opacity:0"/>
</linearGradient>
<path style="opacity:0.5;fill:url(#SVGID_00000087402889557516894530000003966062215573798822_);" d="M655.78,185.5
	c-3.31-18.69-9.85-31.6-16.9-31.87c-1.19-0.04-2.61,0.26-4.24,1.32c-0.08-32.2-0.15-64.39-0.23-96.59c2.39-1.55,4.84-3.48,7.2-5.86
	c11.98-12.13,13.44-28.17,13.64-34.78"/>
<linearGradient id="SVGID_00000119107957567947169370000008223751898618809222_" gradientUnits="userSpaceOnUse" x1="559.6153" y1="84.1009" x2="575.7296" y2="84.1009" gradientTransform="matrix(-1 0 0 -1 1194.254 200.7232)">
	<stop  offset="0" style="stop-color:#2483C5"/>
	<stop  offset="1" style="stop-color:#2483C5;stop-opacity:0"/>
</linearGradient>
<path style="opacity:0.5;fill:url(#SVGID_00000119107957567947169370000008223751898618809222_);" d="M618.95,56.45
	c0.84,0.78,3.73,3.26,8.19,3.55c3.54,0.23,6.19-1.04,7.27-1.64c0.08,32.2,0.15,64.39,0.23,96.59c-1.68,1.43-3.43,3.06-5.16,4.93
	c-5.45,5.89-8.83,11.99-10.96,16.9"/>
<g>
	<g>
		<line class="st28" x1="764.9" y1="98.55" x2="797.04" y2="98.34"/>
		<g>
			<polygon points="794.9,105.83 807.8,98.27 794.8,90.88 			"/>
		</g>
	</g>
</g>
<g>
	<g>
		<line class="st28" x1="864.54" y1="152.77" x2="840.55" y2="176.31"/>
		<g>
			<polygon points="836.88,169.44 832.87,183.85 847.35,180.12 			"/>
		</g>
	</g>
</g>
</svg>
